<svg xmlns="http://www.w3.org/2000/svg" viewBox="0 0 96 96" width="96" height="96" fill="none">
  <defs>
    <linearGradient id="rcBody" x1="0" y1="0" x2="0" y2="1">
      <stop offset="0" stop-color="#F9943E"/>
      <stop offset="1" stop-color="#E0660C"/>
    </linearGradient>
  </defs>
  <!-- leaves -->
  <g fill="#39A845">
    <path d="M45 35c-3-10-2-18 1-25 4 6 6 15 4 24z"/>
    <path d="M43 36c-9-4-15-10-18-18 9 0 17 5 21 15z"/>
    <path d="M49 36c4-10 12-16 21-16-3 9-10 14-18 17z"/>
  </g>
  <!-- carrot body -->
  <path d="M32 40c9-6 23-6 32 0 2 2 3 5 2 8L54 86c-2 6-9 6-11 0L30 48c-1-3 0-6 2-8z" fill="url(#rcBody)"/>
  <!-- ridges / highlight -->
  <g stroke="#FFFFFF" stroke-opacity=".5" stroke-width="2.4" stroke-linecap="round">
    <path d="M40 49l9 2.2"/>
    <path d="M42 60l7 1.6"/>
    <path d="M44 71l4 1"/>
  </g>
  <!-- green price tag with ฿ -->
  <g>
    <path d="M49 52l6 7" stroke="#2C8C38" stroke-width="3" stroke-linecap="round"/>
    <rect x="53" y="55" width="26" height="26" rx="8" fill="#39A845"/>
    <circle cx="60.5" cy="63" r="3" fill="#FBF7EE"/>
    <text x="67" y="77" font-family="'Poppins','Sarabun',system-ui,sans-serif" font-size="15" font-weight="800" fill="#FFFFFF" text-anchor="middle">฿</text>
  </g>
</svg>
