<svg xmlns="http://www.w3.org/2000/svg" viewBox="0 0 96 96" width="96" height="96"><defs><linearGradient id="oG" x1="0" y1="0" x2="0" y2="1"><stop offset="0" stop-color="#F88B2A"/><stop offset="1" stop-color="#E0660C"/></linearGradient><linearGradient id="gG" x1="0" y1="0" x2="0" y2="1"><stop offset="0" stop-color="#46B651"/><stop offset="1" stop-color="#2C8C38"/></linearGradient></defs><rect width="96" height="96" rx="22" fill="#ffffff" stroke="#F0E9DA"/>
  <ellipse cx="44" cy="20" rx="6" ry="11" fill="url(#gG)"/>
  <ellipse cx="36" cy="24" rx="5" ry="9.5" fill="url(#gG)" transform="rotate(-32 36 24)"/>
  <ellipse cx="52" cy="24" rx="5" ry="9.5" fill="url(#gG)" transform="rotate(28 52 24)"/>
  <path d="M44 30 C56 30 59 43 55 55 C52 66 47 77 44 82 C41 77 36 66 33 55 C29 43 32 30 44 30 Z" fill="url(#oG)"/>
  <ellipse cx="39" cy="40" rx="3.4" ry="6" fill="#fff" opacity="0.22"/>
  <g transform="rotate(18 64 60)"><rect x="52" y="50" width="24" height="18" rx="5" fill="url(#gG)"/><circle cx="57" cy="56" r="2.4" fill="#fff"/><g transform="translate(61.42,65.40) scale(0.00732,-0.00732)"><path d="M702 1489V1595H541V1489H132V0H541V-133H702V0C976 0 1200 176 1200 457C1200 654 1111 785 962 827V836C1080 872 1131 968 1131 1144C1131 1282 1070 1489 702 1489ZM541 916H368V1291H541ZM702 916V1291C804 1291 885 1261 885 1124C885 985 840 916 702 916ZM541 190H368V689H541ZM702 194V687C836 687 953 642 953 449C953 298 862 194 702 194Z" fill="#fff"/></g></g></svg>