<svg xmlns="http://www.w3.org/2000/svg" viewBox="0 0 360 96" width="360" height="96"><defs><linearGradient id="oG" x1="0" y1="0" x2="0" y2="1"><stop offset="0" stop-color="#F88B2A"/><stop offset="1" stop-color="#E0660C"/></linearGradient><linearGradient id="gG" x1="0" y1="0" x2="0" y2="1"><stop offset="0" stop-color="#46B651"/><stop offset="1" stop-color="#2C8C38"/></linearGradient></defs><rect width="96" height="96" rx="22" fill="#ffffff" stroke="#F0E9DA"/>
  <ellipse cx="44" cy="20" rx="6" ry="11" fill="url(#gG)"/>
  <ellipse cx="36" cy="24" rx="5" ry="9.5" fill="url(#gG)" transform="rotate(-32 36 24)"/>
  <ellipse cx="52" cy="24" rx="5" ry="9.5" fill="url(#gG)" transform="rotate(28 52 24)"/>
  <path d="M44 30 C56 30 59 43 55 55 C52 66 47 77 44 82 C41 77 36 66 33 55 C29 43 32 30 44 30 Z" fill="url(#oG)"/>
  <ellipse cx="39" cy="40" rx="3.4" ry="6" fill="#fff" opacity="0.22"/>
  <g transform="rotate(18 64 60)"><rect x="52" y="50" width="24" height="18" rx="5" fill="url(#gG)"/><circle cx="57" cy="56" r="2.4" fill="#fff"/><g transform="translate(61.42,65.40) scale(0.00732,-0.00732)"><path d="M702 1489V1595H541V1489H132V0H541V-133H702V0C976 0 1200 176 1200 457C1200 654 1111 785 962 827V836C1080 872 1131 968 1131 1144C1131 1282 1070 1489 702 1489ZM541 916H368V1291H541ZM702 916V1291C804 1291 885 1261 885 1124C885 985 840 916 702 916ZM541 190H368V689H541ZM702 194V687C836 687 953 642 953 449C953 298 862 194 702 194Z" fill="#fff"/></g></g><g transform="translate(118,68.5) scale(0.058,-0.058)"><path d="M420 0 274 265H233V0H62V702H349Q432 702 490.5 673.0Q549 644 578.0 593.5Q607 543 607 481Q607 411 567.5 356.0Q528 301 451 278L613 0ZM233 386H339Q386 386 409.5 409.0Q433 432 433 474Q433 514 409.5 537.0Q386 560 339 560H233Z M1237 238H850Q854 186 883.5 158.5Q913 131 956 131Q1020 131 1045 185H1227Q1213 130 1176.5 86.0Q1140 42 1085.0 17.0Q1030 -8 962 -8Q880 -8 816.0 27.0Q752 62 716.0 127.0Q680 192 680 279Q680 366 715.5 431.0Q751 496 815.0 531.0Q879 566 962 566Q1043 566 1106.0 532.0Q1169 498 1204.5 435.0Q1240 372 1240 288Q1240 264 1237 238ZM1065 333Q1065 377 1035.0 403.0Q1005 429 960 429Q917 429 887.5 404.0Q858 379 851 333Z M1576 566Q1681 566 1751.5 511.0Q1822 456 1844 356H1662Q1639 420 1573 420Q1526 420 1498.0 383.5Q1470 347 1470 279Q1470 211 1498.0 174.5Q1526 138 1573 138Q1639 138 1662 202H1844Q1822 104 1751.0 48.0Q1680 -8 1576 -8Q1494 -8 1430.5 27.0Q1367 62 1331.5 127.0Q1296 192 1296 279Q1296 366 1331.5 431.0Q1367 496 1430.5 531.0Q1494 566 1576 566Z M1919 708Q1919 748 1947.5 774.5Q1976 801 2021 801Q2065 801 2093.5 774.5Q2122 748 2122 708Q2122 669 2093.5 642.5Q2065 616 2021 616Q1976 616 1947.5 642.5Q1919 669 1919 708ZM2106 558V0H1935V558Z" fill="#2A2520"/><path d="M2573 566Q2642 566 2698.0 531.0Q2754 496 2786.5 431.0Q2819 366 2819 280Q2819 194 2786.5 128.5Q2754 63 2698.0 27.5Q2642 -8 2573 -8Q2515 -8 2470.5 16.0Q2426 40 2401 78V-266H2230V558H2401V479Q2426 518 2470.0 542.0Q2514 566 2573 566ZM2522 417Q2471 417 2435.5 380.0Q2400 343 2400 279Q2400 215 2435.5 178.0Q2471 141 2522 141Q2573 141 2609.0 178.5Q2645 216 2645 280Q2645 344 2609.5 380.5Q2574 417 2522 417Z M3255 564V383H3208Q3144 383 3112.0 355.5Q3080 328 3080 259V0H2909V558H3080V465Q3110 511 3155.0 537.5Q3200 564 3255 564Z M3303 279Q3303 365 3341.0 430.5Q3379 496 3445.0 531.0Q3511 566 3593 566Q3675 566 3741.0 531.0Q3807 496 3845.0 430.5Q3883 365 3883 279Q3883 193 3844.5 127.5Q3806 62 3739.5 27.0Q3673 -8 3591 -8Q3509 -8 3443.5 27.0Q3378 62 3340.5 127.0Q3303 192 3303 279ZM3709 279Q3709 346 3675.5 382.0Q3642 418 3593 418Q3543 418 3510.0 382.5Q3477 347 3477 279Q3477 212 3509.5 176.0Q3542 140 3591 140Q3640 140 3674.5 176.0Q3709 212 3709 279Z" fill="#E0660C"/></g></svg>